<?xml version="1.0" encoding="iso-8859-1"?>
<!-- Generator: Adobe Illustrator 19.0.0, SVG Export Plug-In . SVG Version: 6.00 Build 0)  -->
<svg version="1.1" id="Capa_1" xmlns="http://www.w3.org/2000/svg" xmlns:xlink="http://www.w3.org/1999/xlink" x="0px" y="0px"
	 viewBox="0 0 480 480" style="enable-background:new 0 0 480 480;" xml:space="preserve">
<path style="fill:#A7C6D3;" d="M104,232h112v176H104V232z"/>
<circle style="fill:#238892;" cx="168" cy="360" r="16"/>
<path style="fill:#FFD782;" d="M312,232v-16c0-35.346-28.654-64-64-64v80h-32v176h130.776c16.552,0.002,30.374-12.62,31.872-29.104
	l10.176-112c1.599-17.601-11.372-33.165-28.973-34.765c-0.961-0.087-1.926-0.131-2.891-0.131H312z"/>
<g>
	<path style="fill:#FDBD40;" d="M376,208c-4.418,0-8-3.582-8-8c0-13.255-10.745-24-24-24c-4.418,0-8-3.582-8-8s3.582-8,8-8
		c13.255,0,24-10.745,24-24c0-4.418,3.582-8,8-8s8,3.582,8,8c0,13.255,10.745,24,24,24c4.418,0,8,3.582,8,8s-3.582,8-8,8
		c-13.255,0-24,10.745-24,24C384,204.418,380.418,208,376,208z M368,168c3.029,2.278,5.722,4.971,8,8c2.278-3.029,4.971-5.722,8-8
		c-3.029-2.278-5.722-4.971-8-8C373.722,163.029,371.029,165.722,368,168z"/>
	<path style="fill:#FDBD40;" d="M440,152c-4.418,0-8-3.582-8-8c0-13.255-10.745-24-24-24c-4.418,0-8-3.582-8-8s3.582-8,8-8
		c13.255,0,24-10.745,24-24c0-4.418,3.582-8,8-8s8,3.582,8,8c0,13.255,10.745,24,24,24c4.418,0,8,3.582,8,8s-3.582,8-8,8
		c-13.255,0-24,10.745-24,24C448,148.418,444.418,152,440,152z M432,112c3.029,2.278,5.722,4.971,8,8c2.278-3.029,4.971-5.722,8-8
		c-3.029-2.278-5.722-4.971-8-8C437.722,107.029,435.029,109.722,432,112z"/>
</g>
<g>
	<path style="fill:#238892;" d="M72,240H8c-4.418,0-8-3.582-8-8s3.582-8,8-8h64c4.418,0,8,3.582,8,8S76.418,240,72,240z"/>
	<path style="fill:#238892;" d="M72,272H24c-4.418,0-8-3.582-8-8s3.582-8,8-8h48c4.418,0,8,3.582,8,8S76.418,272,72,272z"/>
</g>
<g>
</g>
<g>
</g>
<g>
</g>
<g>
</g>
<g>
</g>
<g>
</g>
<g>
</g>
<g>
</g>
<g>
</g>
<g>
</g>
<g>
</g>
<g>
</g>
<g>
</g>
<g>
</g>
<g>
</g>
</svg>
