<svg height="512" viewBox="0 0 64 64" width="512" xmlns="http://www.w3.org/2000/svg"><g id="flat"><path d="m14 5h42v44h-42z" fill="#d3843d"/><path d="m61 45c0 1 0 3-1 4l-17 10-15-3v-10h16a2 2 0 0 1 2 2l11-4c2-1 3.417-.456 4 1z" fill="#ffd782"/><path d="m8.502 38.5h14v25h-14z" fill="#195c85" transform="matrix(0 -1 1 0 -35.498 66.502)"/><path d="m42 19h-2l-2-2-3 2-3-2-2 2h-2v-14h14z" fill="#f9bb4b"/><path d="m18 30h13v10h-13z" fill="#f4f4e6"/><path d="m21 34h7v2h-7z" fill="#50b3c9"/><path d="m43.8 52h-9.8v-2h9.8a1 1 0 0 0 0-2h-9.8v-2h9.8a3 3 0 0 1 0 6z" fill="#f9bb4b"/></g></svg>